HIERARCHY
ROOT Hips
{
	OFFSET 0.000000 0.000000 0.000000
	CHANNELS 6 Xposition Yposition Zposition Zrotation Yrotation Xrotation 
	JOINT LHipJoint
	{
		OFFSET 0.000000 0.000000 0.000000
		CHANNELS 3 Zrotation Yrotation Xrotation
		JOINT LeftUpLeg
		{
			OFFSET 1.363060 -1.794630 0.839290
			CHANNELS 3 Zrotation Yrotation Xrotation
			JOINT LeftLeg
			{
				OFFSET 2.448110 -6.726130 0.000000
				CHANNELS 3 Zrotation Yrotation Xrotation
				JOINT LeftFoot
				{
					OFFSET 2.562200 -7.039590 0.000000
					CHANNELS 3 Zrotation Yrotation Xrotation
					JOINT LeftToeBase
					{
						OFFSET 0.157640 -0.433110 2.322550
						CHANNELS 3 Zrotation Yrotation Xrotation
						End Site
						{
							OFFSET 0.000000 0.000000 0.000000
						}
					}
				}
			}
		}
	}
	JOINT RHipJoint
	{
		OFFSET 0.000000 0.000000 0.000000
		CHANNELS 3 Zrotation Yrotation Xrotation
		JOINT RightUpLeg
		{
			OFFSET -1.305520 -1.794630 0.839290
			CHANNELS 3 Zrotation Yrotation Xrotation
			JOINT RightLeg
			{
				OFFSET -2.542530 -6.985550 0.000000
				CHANNELS 3 Zrotation Yrotation Xrotation
				JOINT RightFoot
				{
					OFFSET -2.568260 -7.056230 0.000000
					CHANNELS 3 Zrotation Yrotation Xrotation
					JOINT RightToeBase
					{
						OFFSET -0.164730 -0.452590 2.363150
						CHANNELS 3 Zrotation Yrotation Xrotation
						End Site
						{
							OFFSET 0.000000 0.000000 0.000000
						}
					}
				}
			}
		}
	}
}
MOTION
Frames: 33
Frame Time: 0.008333
-21.425737 16.129187 -0.798519 16.791403 84.962418 28.350875 -9.613061 -0.342445 2.576674 -12.845009 -1.262363 -49.332821 -1.142243 2.110400 46.802331 1.587439 6.548837 -11.841682 -0.447400 0.000000 -14.170300 10.276430 -4.726470 0.106510 1.958209 -5.647812 7.684811 1.886362 -1.940710 25.454246 0.833876 9.570401 -2.949509 0.531800 -0.000000 -74.962100
-21.279723 16.119683 -0.821364 17.802619 84.743100 29.060877 -9.595664 -0.273901 2.440576 -13.262408 -0.978096 -48.626724 -1.163634 2.123181 47.490684 1.638170 6.674671 -12.878006 -0.618200 0.000000 -14.210900 10.500492 -4.818790 0.010163 0.992487 -6.280706 6.413329 1.634160 -2.267648 28.710995 0.873675 10.458339 -1.056593 0.879500 -0.000000 -77.234100
-21.136740 16.109525 -0.844502 18.907457 84.513568 29.894578 -9.566002 -0.200305 2.310623 -13.706374 -0.718599 -47.932381 -1.187347 2.131517 48.119376 1.697466 6.838919 -13.898375 -0.795299 -0.000000 -14.265700 10.742209 -4.888283 -0.073236 0.016527 -6.888222 4.975674 1.347585 -2.577057 32.117701 0.871098 11.270277 0.994541 1.321100 0.000000 -78.809899
-20.996867 16.098719 -0.867680 20.088752 84.281862 30.836302 -9.524214 -0.123049 2.187683 -14.171825 -0.487968 -47.261806 -1.211631 2.136851 48.698911 1.763802 7.034917 -14.889287 -0.977700 0.000000 -14.306400 10.995194 -4.928026 -0.143783 -0.936971 -7.444726 3.405482 1.035582 -2.862520 35.621315 0.822288 11.935830 3.153576 1.840300 -0.000000 -79.537900
-20.860831 16.087434 -0.890317 21.409966 84.058112 31.947350 -9.466130 -0.043011 2.071601 -14.664351 -0.295045 -46.613555 -1.235526 2.138680 49.231371 1.835655 7.256185 -15.839080 -1.164200 0.000001 -14.306400 11.259559 -4.933263 -0.205133 -1.856718 -7.946116 1.733910 0.710608 -3.122082 39.175538 0.729467 12.397898 5.341665 2.400200 -0.000000 -79.332600
-20.728491 16.076035 -0.912300 22.827235 83.847532 33.176656 -9.394270 0.039588 1.961190 -15.174002 -0.136347 -45.982170 -1.258800 2.138269 49.718322 1.910111 7.488997 -16.741113 -1.352800 -0.000000 -14.249599 11.527230 -4.900455 -0.262768 -2.720806 -8.387149 -0.000132 0.385141 -3.356709 42.735046 0.599013 12.592344 7.466164 2.942501 0.000000 -78.211000
-20.600169 16.065019 -0.933467 24.327980 83.653951 34.502920 -9.310067 0.125032 1.854438 -15.694505 -0.007604 -45.353196 -1.282045 2.135935 50.154275 1.984304 7.720080 -17.591041 -1.540600 0.000000 -14.126500 11.793320 -4.829152 -0.322683 -3.519465 -8.772227 -1.764045 0.069403 -3.570805 46.263388 0.440287 12.464972 9.421556 3.395400 -0.000001 -76.308800
-20.475705 16.055039 -0.953846 25.889230 83.478119 35.893910 -9.216077 0.213801 1.749167 -16.218498 0.098411 -44.709930 -1.306394 2.131907 50.529159 2.055686 7.937952 -18.386420 -1.724599 -0.000000 -13.937700 12.053146 -4.721132 -0.390219 -4.247544 -9.108774 -3.531602 -0.231006 -3.770359 49.731654 0.262644 11.970789 11.109598 3.686900 -0.000000 -73.868700
-20.355060 16.046832 -0.973482 27.492287 83.318008 37.324632 -9.114398 0.306515 1.643581 -16.741021 0.188956 -44.035408 -1.333253 2.125943 50.829177 2.122393 8.134529 -19.125415 -1.902000 -0.000000 -13.691400 12.303915 -4.579604 -0.468477 -4.904984 -9.403373 -5.287142 -0.514985 -3.961377 53.117455 0.073500 11.081939 12.447814 3.760901 -0.000000 -71.177900
-20.238115 16.041058 -0.992724 29.061155 83.172009 38.711754 -9.012219 0.402629 1.536104 -17.246463 0.279724 -43.317682 -1.363886 2.118515 51.044401 2.182139 8.299533 -19.809385 -2.069500 0.000000 -13.403399 12.538228 -4.409666 -0.557755 -5.479707 -9.653379 -7.016597 -0.784605 -4.148024 56.401688 -0.122572 9.786910 13.372351 3.585800 0.000000 -68.479200
-20.124220 16.038589 -1.011761 30.585177 83.032403 40.047636 -8.910657 0.502507 1.426416 -17.734924 0.374608 -42.547382 -1.399886 2.108737 51.155293 2.235026 8.434734 -20.435435 -2.225100 -0.000000 -13.093600 12.755439 -4.214435 -0.656805 -5.977378 -9.859303 -8.723011 -1.043378 -4.332779 59.568398 -0.323635 8.110399 13.846180 3.167799 0.000000 -65.923600
-20.012905 16.039979 -1.031038 31.985056 82.897727 41.251511 -8.817183 0.604654 1.314819 -18.191950 0.487517 -41.721938 -1.441834 2.096539 51.154789 2.279994 8.536096 -21.004670 -2.366600 0.000000 -12.784700 12.948888 -3.999920 -0.761371 -6.385943 -10.012895 -10.405028 -1.294058 -4.515744 62.600950 -0.529289 6.098767 13.848100 2.543500 -0.000000 -63.537700
-19.903921 16.045805 -1.050770 33.244347 82.763831 42.312374 -8.732858 0.708108 1.202164 -18.616627 0.620656 -40.840989 -1.490292 2.080707 51.030517 2.317884 8.609001 -21.514838 -2.493301 -0.000000 -12.497700 13.118236 -3.770038 -0.867097 -6.708293 -10.110487 -12.070272 -1.537910 -4.695986 65.480680 -0.739540 3.832788 13.382582 1.780700 0.000000 -61.255700
-19.796487 16.056513 -1.071229 34.325489 82.629629 43.197482 -8.660581 0.811151 1.089501 -19.002780 0.778138 -39.908030 -1.545112 2.060365 50.776822 2.349103 8.657110 -21.964132 -2.604300 -0.000000 -12.251400 13.261241 -3.529507 -0.968512 -6.941434 -10.145030 -13.723515 -1.773995 -4.871065 68.184192 -0.953643 1.413305 12.476457 0.963600 -0.000000 -58.951800
-19.690501 16.072328 -1.092689 35.191900 82.494866 43.874245 -8.603576 0.911990 0.978346 -19.343410 0.962963 -38.929710 -1.605764 2.034836 50.392311 2.373882 8.683551 -22.350586 -2.698900 -0.000000 -12.059500 13.375150 -3.283335 -1.059688 -7.081561 -10.108865 -15.367170 -1.999509 -5.037218 70.685236 -1.169279 -1.045465 11.181726 0.180000 0.000001 -56.493900
-19.585390 16.093466 -1.115267 35.833051 82.359352 44.337475 -8.562260 1.009200 0.869761 -19.636388 1.173046 -37.911568 -1.671581 2.003233 49.876014 2.392828 8.693190 -22.671824 -2.777200 0.000001 -11.928200 13.459727 -3.035519 -1.135575 -7.131659 -9.996374 -17.001943 -2.209967 -5.190561 72.955474 -1.381576 -3.423158 9.571363 -0.492100 0.000000 -53.761600
-19.481049 16.119939 -1.139057 36.236820 82.223477 44.579168 -8.537383 1.101117 0.764014 -19.878109 1.406091 -36.859512 -1.741693 1.965016 49.230112 2.406257 8.689711 -22.926007 -2.839100 0.000000 -11.856000 13.514234 -2.789654 -1.192250 -7.094699 -9.801900 -18.624435 -2.399886 -5.326981 74.966835 -1.583176 -5.607341 7.734023 -0.998000 0.000001 -50.672501
-19.376912 16.151677 -1.164010 36.405660 82.087796 44.602784 -8.528411 1.186793 0.661286 -20.067544 1.658521 -35.775571 -1.815190 1.919626 48.457492 2.414321 8.675671 -23.111885 -2.884700 0.000000 -11.834000 13.539193 -2.549015 -1.226666 -6.977653 -9.522481 -20.226258 -2.563468 -5.442803 76.693552 -1.764815 -7.502217 5.765996 -1.312400 -0.000000 -47.201200
-19.273076 16.188472 -1.190054 36.344026 81.952595 44.412553 -8.534766 1.265356 0.560589 -20.203547 1.927122 -34.659130 -1.891233 1.866823 47.562101 2.416983 8.652447 -23.229573 -2.914100 -0.000000 -11.846900 13.535126 -2.315997 -1.237852 -6.788828 -9.156915 -21.794463 -2.695269 -5.534967 78.113640 -1.916650 -9.036509 3.762692 -1.439900 0.000000 -43.383600
-19.169175 16.230052 -1.217065 36.060946 81.817700 44.014577 -8.555245 1.336164 0.460525 -20.286008 2.208479 -33.506319 -1.969015 1.806367 46.546722 2.414315 8.621627 -23.280128 -2.928000 0.000001 -11.876501 13.503170 -2.092203 -1.226197 -6.537978 -8.706229 -23.313411 -2.790720 -5.601312 79.209545 -2.029907 -10.167110 1.812425 -1.410100 -0.000001 -39.328800
-19.065150 16.276175 -1.245052 35.551573 81.680393 43.399887 -8.590769 1.398868 0.358704 -20.312823 2.501885 -32.309818 -2.048009 1.738629 45.412393 2.406235 8.584730 -23.264921 -2.926799 -0.000000 -11.905400 13.442380 -1.877947 -1.194041 -6.232946 -8.170920 -24.763564 -2.846687 -5.639550 79.967443 -2.098767 -10.882243 -0.005455 -1.268800 0.000000 -35.220700
-18.960772 16.326182 -1.273620 34.848677 81.542976 42.595283 -8.636163 1.453614 0.253780 -20.289788 2.803450 -31.061005 -2.126970 1.662810 44.163212 2.393308 8.543816 -23.187422 -2.912100 -0.000000 -11.916200 13.358367 -1.674633 -1.142777 -5.888122 -7.558519 -26.128373 -2.861963 -5.650741 80.383465 -2.120578 -11.194339 -1.630344 -1.065500 -0.000000 -31.300101
-18.856067 16.379667 -1.302822 33.941265 81.401471 41.585807 -8.692478 1.500555 0.143952 -20.215439 3.113784 -29.753592 -2.205240 1.579469 42.799851 2.375844 8.501649 -23.050124 -2.884900 0.000000 -11.900100 13.250324 -1.481508 -1.075443 -5.507942 -6.871211 -27.392221 -2.837237 -5.634034 80.456821 -2.097257 -11.143432 -3.015677 -0.846200 -0.000000 -27.838100
-18.750684 16.436242 -1.332648 32.825991 81.251988 40.362630 -8.759112 1.540030 0.026760 -20.090466 3.434308 -28.377081 -2.281956 1.488802 41.320045 2.354309 8.462207 -22.853380 -2.846300 0.000000 -11.855000 13.119328 -1.297638 -0.996080 -5.098013 -6.113345 -28.538994 -2.774686 -5.590065 80.191664 -2.034178 -10.786774 -4.141343 -0.643800 0.000000 -25.050300
-18.644365 16.495193 -1.363072 31.499423 81.092575 38.921364 -8.835360 1.573003 -0.096955 -19.915865 3.765233 -26.934071 -2.355741 1.391259 39.730007 2.329396 8.428629 -22.600180 -2.797701 0.000001 -11.785900 12.966868 -1.122396 -0.906098 -4.659035 -5.290979 -29.564940 -2.677971 -5.520045 79.602585 -1.939818 -10.195133 -5.014204 -0.476001 -0.000000 -23.075400
-18.536655 16.555975 -1.394177 29.953271 80.920420 37.253653 -8.920868 1.600508 -0.226769 -19.692039 4.107886 -25.426630 -2.425162 1.287406 38.034061 2.301525 8.403717 -22.290158 -2.739500 -0.000000 -11.706399 12.794100 -0.954592 -0.807774 -4.190051 -4.410318 -30.467292 -2.551004 -5.425629 78.705847 -1.824541 -9.446111 -5.668141 -0.346700 0.000000 -21.912599
-18.427511 16.617859 -1.425940 28.188853 80.734190 35.364326 -9.014733 1.624205 -0.359810 -19.420342 4.461994 -23.866972 -2.488461 1.178046 36.243200 2.271080 8.389112 -21.923094 -2.671700 -0.000000 -11.635700 12.602811 -0.793139 -0.701424 -3.688021 -3.479802 -31.252031 -2.397836 -5.308859 77.522081 -1.699494 -8.618296 -6.155810 -0.251100 0.000000 -21.443800
-18.316452 16.680351 -1.458480 26.200325 80.532630 33.248014 -9.116589 1.645177 -0.497060 -19.099058 4.834991 -22.260225 -2.544241 1.064214 34.364877 2.237199 8.381100 -21.495383 -2.592900 0.000000 -11.599699 12.394480 -0.636839 -0.589931 -3.148747 -2.506952 -31.917146 -2.221926 -5.172091 76.066667 -1.575563 -7.786606 -6.532835 -0.181600 -0.000000 -21.505500
-18.203103 16.742649 -1.491656 24.009509 80.318649 30.936737 -9.224564 1.665730 -0.632177 -18.731483 5.222995 -20.635490 -2.590668 0.947229 32.422901 2.199458 8.374541 -21.006910 -2.501600 -0.000000 -11.623800 12.171794 -0.485220 -0.470086 -2.569333 -1.502819 -32.480897 -2.026928 -5.017548 74.360465 -1.462371 -7.015652 -6.854825 -0.130000 -0.000001 -21.873299
-18.087288 16.804164 -1.525312 21.638207 80.096135 28.458649 -9.337134 1.687272 -0.763436 -18.318534 5.629787 -19.012787 -2.626631 0.828623 30.437589 2.156157 8.358502 -20.454915 -2.395200 0.000000 -11.734899 11.937159 -0.338216 -0.341621 -1.948356 -0.478407 -32.950735 -1.815808 -4.847541 72.414463 -1.367717 -6.356739 -7.159536 -0.091000 0.000000 -22.364700
-17.969071 16.864195 -1.559203 19.128584 79.871058 25.860035 -9.452482 1.711805 -0.888488 -17.863978 6.060288 -17.413648 -2.651752 0.710267 28.434792 2.104979 8.316807 -19.838814 -2.271300 -0.000001 -11.956800 11.693465 -0.197047 -0.202886 -1.289604 0.553182 -33.332941 -1.591663 -4.664146 70.236858 -1.297284 -5.845028 -7.465701 -0.060800 0.000001 -22.837900
-17.848197 16.922139 -1.592833 16.543624 79.653052 23.214050 -9.567940 1.740634 -1.003421 -17.376477 6.510938 -15.866848 -2.666323 0.593858 26.443757 2.044052 8.233891 -19.159400 -2.128400 0.000000 -12.305700 11.443614 -0.063314 -0.051404 -0.602371 1.575788 -33.641057 -1.357624 -4.469108 67.831356 -1.254491 -5.497943 -7.771080 -0.037700 0.000000 -23.179400
-17.725022 16.977556 -1.626027 13.905403 79.448530 20.539276 -9.684380 1.774003 -1.113355 -16.853230 6.999706 -14.379756 -2.672160 0.481989 24.486233 1.969153 8.082400 -18.417458 -1.964100 0.000000 -12.798700 11.188346 0.060657 0.109584 0.109401 2.577618 -33.862967 -1.116617 -4.263067 65.189807 -1.240751 -5.319896 -8.046593 -0.022300 -0.000000 -23.375600
